<!DOCTYPE svg PUBLIC "-//W3C//DTD SVG 1.1//EN" "http://www.w3.org/Graphics/SVG/1.1/DTD/svg11.dtd">
<!-- Uploaded to: SVG Repo, www.svgrepo.com, Transformed by: SVG Repo Mixer Tools -->
<svg fill="#ffffff" height="800px" width="800px" version="1.1" id="Layer_1" xmlns="http://www.w3.org/2000/svg" xmlns:xlink="http://www.w3.org/1999/xlink" viewBox="0 0 512 512" xml:space="preserve" stroke="#ffffff">
<g id="SVGRepo_bgCarrier" stroke-width="0"/>
<g id="SVGRepo_tracerCarrier" stroke-linecap="round" stroke-linejoin="round"/>
<g id="SVGRepo_iconCarrier"> <g> <g> <g> <path d="M256,238.428c65.734,0,119.214-53.48,119.214-119.214C375.215,53.478,321.734,0,256,0 c-65.736,0-119.214,53.478-119.214,119.214C136.786,184.948,190.266,238.428,256,238.428z M256,38.703 c44.394,0,80.511,36.118,80.511,80.511S300.394,199.725,256,199.725c-44.395,0-80.511-36.118-80.511-80.511 S211.606,38.703,256,38.703z"/> <path d="M256,253.693c-97.918,0-177.581,79.662-177.581,177.581v61.375c0,10.687,8.664,19.351,19.351,19.351h316.459 c10.687,0,19.352-8.664,19.352-19.351v-61.375C433.582,333.356,353.92,253.693,256,253.693z M117.122,473.297v-42.024 c0-76.578,62.3-138.878,138.878-138.878s138.878,62.3,138.878,138.878v42.024H117.122z"/> </g> </g> </g> </g>
</svg>